Coordinates
version=1
nRows=14
nColumns=63
inDegrees=yes

Units are S.I. units (second, meters, Newtons, ...)
If the header above contains a line with 'inDegrees', this indicates whether rotational values are in degrees (yes) or radians (no).

endheader
time	pelvis_tilt	pelvis_list	pelvis_rotation	pelvis_tx	pelvis_ty	pelvis_tz	hip_flexion_r	hip_adduction_r	hip_rotation_r	knee_angle_r	knee_angle_r_beta	ankle_angle_r	subtalar_angle_r	mtp_angle_r	hip_flexion_l	hip_adduction_l	hip_rotation_l	knee_angle_l	knee_angle_l_beta	ankle_angle_l	subtalar_angle_l	mtp_angle_l	L5_S1_Flex_Ext	L5_S1_Lat_Bending	L5_S1_axial_rotation	L4_L5_Flex_Ext	L4_L5_Lat_Bending	L4_L5_axial_rotation	L3_L4_Flex_Ext	L3_L4_Lat_Bending	L3_L4_axial_rotation	L2_L3_Flex_Ext	L2_L3_Lat_Bending	L2_L3_axial_rotation	L1_L2_Flex_Ext	L1_L2_Lat_Bending	L1_L2_axial_rotation	L1_T12_Flex_Ext	L1_T12_Lat_Bending	L1_T12_axial_rotation	Abs_r3	Abs_r2	Abs_r1	Abs_t1	Abs_t2	neck_flexion	neck_bending	neck_rotation	arm_flex_r	arm_add_r	arm_rot_r	elbow_flex_r	pro_sup_r	wrist_flex_r	wrist_dev_r	arm_flex_l	arm_add_l	arm_rot_l	elbow_flex_l	pro_sup_l	wrist_flex_l	wrist_dev_l
3.520833	19.064378	-45.102373	114.111674	0.208304	0.756907	0.671779	65.327626	-8.407512	-13.767547	37.987384	0.663005	27.245374	-2.042799	0.000000	60.755340	1.033342	-2.946530	19.262763	0.336199	29.275761	17.679784	0.000000	-0.059207	0.465801	-0.301392	-0.109954	0.619516	-0.320229	-0.097272	1.132549	-0.320229	-0.067668	1.132549	-0.263718	-0.054980	0.949862	-0.244881	-0.033831	0.721526	-0.226044	-0.422913	5.269237	-1.676253	0.000000	0.000000	7.805906	-0.552735	-8.737326	55.660594	-25.839253	30.257019	50.938876	89.210241	-44.029327	-22.394483	19.943429	-10.253273	152.596901	0.203467	3.301486	-54.281671	-22.904633
3.541667	20.272336	-44.802905	115.320623	0.206936	0.756800	0.672101	64.986897	-8.172340	-14.363593	37.314080	0.651254	26.714283	-1.949134	0.000000	60.668388	0.923631	-2.012266	18.769993	0.327598	28.999630	17.517250	0.000000	-0.056076	0.591445	-0.233797	-0.104138	0.786622	-0.248410	-0.092127	1.438040	-0.248410	-0.064089	1.438040	-0.204573	-0.052072	1.206075	-0.189960	-0.032042	0.916149	-0.175348	-0.400542	6.690547	-1.300311	0.000000	0.000000	7.823158	-0.924420	-7.876987	56.547430	-26.250510	34.365813	47.157992	89.208007	-44.400576	-21.177828	19.826500	-9.533614	153.399700	0.209082	3.259195	-56.046013	-22.800227
3.562500	21.186917	-44.536732	116.201084	0.205890	0.756725	0.672216	64.609894	-7.930569	-14.854960	36.595222	0.638707	26.192189	-1.682437	0.000000	60.512434	0.810196	-1.258878	18.249236	0.318509	28.710137	17.320108	0.000000	-0.055674	0.690881	-0.145397	-0.103392	0.918871	-0.154485	-0.091467	1.679807	-0.154485	-0.063630	1.679807	-0.127223	-0.051699	1.408844	-0.118135	-0.031812	1.070174	-0.109048	-0.397675	7.815379	-0.808657	0.000000	0.000000	7.908654	-1.196304	-7.250692	56.975876	-26.619530	38.430134	43.895657	89.270238	-44.339710	-19.159699	19.875844	-8.829586	153.781739	0.215262	3.123346	-57.214717	-22.812624
3.583333	21.894274	-44.271967	116.817704	0.205023	0.756796	0.672180	64.142286	-7.666459	-15.329526	35.804724	0.624910	25.694039	-1.207627	0.000000	60.284447	0.662005	-0.648857	17.731518	0.309473	28.407849	17.129828	0.000000	-0.059364	0.775766	-0.027347	-0.110244	1.031769	-0.029056	-0.097529	1.886197	-0.029056	-0.067847	1.886197	-0.023929	-0.055125	1.581942	-0.022219	-0.033920	1.201661	-0.020510	-0.424029	8.775619	-0.152095	0.000000	0.000000	7.973250	-1.428957	-6.890151	57.091802	-27.138155	43.017775	41.077105	89.223702	-44.322787	-16.599362	20.144773	-8.064172	153.908419	0.215521	2.891300	-57.949438	-22.898317
3.604167	22.461678	-44.001205	117.267317	0.204212	0.757056	0.672035	63.563039	-7.410658	-15.869108	34.952239	0.610032	25.242554	-0.538275	0.000000	59.999145	0.502928	-0.094653	17.237698	0.300855	28.077300	16.913160	0.000000	-0.063928	0.852784	0.128091	-0.118720	1.134202	0.136097	-0.105027	2.073459	0.136097	-0.073063	2.073459	0.112080	-0.059363	1.738997	0.104074	-0.036528	1.320962	0.096069	-0.456628	9.646861	0.712406	0.000000	0.000000	7.947532	-1.626013	-6.862718	56.755322	-27.904834	47.582728	38.641439	89.136622	-44.462438	-14.141305	20.658424	-7.172996	154.074769	0.210333	2.585154	-58.551893	-23.043122
3.625000	22.948172	-43.690008	117.613728	0.203417	0.757567	0.671827	62.835244	-7.152119	-16.529364	34.034203	0.594009	24.820144	0.258407	0.000000	59.658599	0.324832	0.462401	16.800153	0.293218	27.716152	16.669433	0.000000	-0.069790	0.928001	0.326628	-0.129607	1.234242	0.347042	-0.114658	2.256342	0.347042	-0.079763	2.256342	0.285799	-0.064807	1.892380	0.265385	-0.039878	1.437474	0.244971	-0.498502	10.497735	1.816606	0.000000	0.000000	7.788296	-1.793404	-7.229193	55.910011	-28.909217	51.730562	36.516541	88.904825	-44.630390	-12.128030	21.420572	-6.123042	154.547267	0.200989	2.233980	-59.314228	-23.229558
3.645833	23.305120	-43.336295	117.846445	0.202578	0.758346	0.671617	61.973573	-6.949826	-17.344050	33.089039	0.577513	24.442531	1.222063	0.000000	59.253376	0.184052	1.063906	16.400577	0.286244	27.290862	16.329752	0.000000	-0.075057	1.000566	0.555423	-0.139388	1.330752	0.590137	-0.123310	2.432775	0.590137	-0.085782	2.432775	0.485995	-0.069698	2.040353	0.451281	-0.042887	1.549876	0.416567	-0.536122	11.318598	3.089098	0.000000	0.000000	7.480566	-1.928976	-7.844893	54.581488	-30.021122	55.098493	34.620253	88.658698	-44.817977	-10.515723	22.376605	-4.920506	155.366481	0.188842	1.866326	-60.462633	-23.429287
3.666667	23.569002	-42.926422	118.000403	0.201723	0.759422	0.671441	60.980467	-6.780911	-18.323481	32.113840	0.560492	24.093178	2.267569	0.000000	58.803304	0.063303	1.699202	16.067946	0.280439	26.805232	15.941040	0.000000	-0.080701	1.073646	0.817305	-0.149870	1.427949	0.868386	-0.132584	2.610463	0.868386	-0.092233	2.610463	0.715142	-0.074939	2.189379	0.664060	-0.046113	1.663078	0.612979	-0.576440	12.145299	4.545604	0.000000	0.000000	7.048815	-2.040219	-8.742163	52.730996	-31.189754	57.599378	32.962994	87.940639	-44.707898	-9.302691	23.542153	-3.543894	156.568946	0.175214	1.535912	-61.979941	-23.594391
3.687500	23.722743	-42.474361	118.062061	0.200885	0.760767	0.671333	59.892285	-6.667587	-19.472113	31.135598	0.543419	23.805456	3.432601	0.000000	58.326198	-0.017234	2.409621	15.816448	0.276049	26.258854	15.414951	0.000000	-0.087568	1.145876	1.108360	-0.162622	1.524015	1.177632	-0.143865	2.786083	1.177632	-0.100081	2.786083	0.969815	-0.081315	2.336670	0.900542	-0.050036	1.774962	0.831270	-0.625486	12.962379	6.164364	0.000000	0.000000	6.532839	-2.146334	-9.871866	50.330592	-32.217713	58.699454	31.567376	87.185799	-44.152098	-8.294385	24.916374	-1.991516	158.059993	0.161571	1.287621	-63.770354	-23.690434
3.708333	23.703872	-42.012583	117.919600	0.200230	0.762331	0.671276	58.782433	-6.580409	-20.685712	30.198752	0.527068	23.599692	4.721838	0.000000	57.842457	-0.087904	3.102492	15.671230	0.273515	25.693251	14.753118	0.000000	-0.096231	1.208224	1.449368	-0.178711	1.606938	1.539953	-0.158098	2.937676	1.539953	-0.109982	2.937676	1.268197	-0.089360	2.463811	1.177611	-0.054986	1.871539	1.087026	-0.687369	13.667674	8.060949	0.000000	0.000000	5.967597	-2.245984	-11.356683	47.253299	-33.024408	57.997399	30.611736	86.470121	-43.044390	-7.395815	26.537525	-0.281262	159.749751	0.149171	1.157482	-65.622473	-23.789503
3.729167	23.612117	-41.497506	117.699233	0.199639	0.764090	0.671347	57.636734	-6.502175	-21.947745	29.309409	0.511546	23.471128	5.970379	0.000000	57.374846	-0.147892	3.855500	15.695803	0.273943	25.170484	13.967628	0.000000	-0.112876	1.273864	1.805677	-0.209622	1.694240	1.918532	-0.185444	3.097274	1.918532	-0.129006	3.097274	1.579967	-0.104816	2.597664	1.467113	-0.064497	1.973216	1.354258	-0.806260	14.410210	10.042634	0.000000	0.000000	5.439991	-2.382091	-12.933380	43.711064	-33.626670	55.806112	30.055144	85.805089	-41.468915	-6.751818	28.398518	1.559548	161.584610	0.137880	1.127049	-67.402563	-23.779631
3.750000	23.429477	-40.960097	117.324194	0.199226	0.765961	0.671513	56.518467	-6.403775	-23.170866	28.503506	0.497480	23.436261	7.211335	0.000000	56.946927	-0.239462	4.582384	15.909340	0.277670	24.751425	13.071846	0.000000	-0.136717	1.337940	2.192334	-0.253897	1.779461	2.329355	-0.224612	3.253068	2.329355	-0.156254	3.253068	1.918292	-0.126955	2.728328	1.781272	-0.078120	2.072469	1.644251	-0.976554	15.135048	12.193105	0.000000	0.000000	4.983698	-2.592833	-14.700586	39.701099	-34.050439	52.116472	30.001115	85.262574	-39.689524	-6.412557	30.502420	3.514917	163.455712	0.127499	1.112769	-68.860916	-23.780030
3.770833	23.200364	-40.393838	116.898243	0.198869	0.767882	0.671717	55.419106	-6.306231	-24.405014	27.784680	0.484934	23.519196	8.450434	0.000000	56.565066	-0.320930	5.357839	16.309284	0.284651	24.448851	12.037818	0.000000	-0.164817	1.404628	2.582775	-0.306081	1.868155	2.744198	-0.270777	3.415213	2.744198	-0.188369	3.415213	2.259928	-0.153049	2.864318	2.098505	-0.094176	2.175769	1.937081	-1.177269	15.889434	14.364619	0.000000	0.000000	4.614855	-2.921596	-16.627620	35.344458	-34.392403	47.229575	30.435450	84.909142	-37.821787	-6.429217	32.820133	5.511913	165.255315	0.117808	1.106233	-69.958909	-23.786048
3.791667	22.917217	-39.817832	116.392688	0.198615	0.769814	0.671901	54.364274	-6.200859	-25.538767	27.159870	0.474029	23.700377	9.651696	0.000000	56.232265	-0.411473	6.103881	16.888514	0.294760	24.278974	10.929809	0.000000	-0.197592	1.471131	2.975661	-0.366948	1.956604	3.161640	-0.324624	3.576907	3.161640	-0.225828	3.576907	2.603703	-0.183484	2.999930	2.417724	-0.112904	2.278782	2.231746	-1.411379	16.641726	16.549733	0.000000	0.000000	4.352965	-3.331018	-18.635794	30.830086	-34.660324	41.518422	31.193754	84.685956	-36.020343	-6.812544	35.319299	7.516073	166.950373	0.108772	1.080069	-70.623102	-23.796505
